<svg version="1.1" xmlns="http://www.w3.org/2000/svg" xmlns:xlink="http://www.w3.org/1999/xlink" width="45.03163" height="45.03163" viewBox="0,0,45.03163,45.03163"><defs><radialGradient cx="231.00324" cy="170.30115" r="21.26353" gradientUnits="userSpaceOnUse" id="color-1"><stop offset="0" stop-color="#ffffff"/><stop offset="1" stop-color="#00f038" stop-opacity="0"/></radialGradient><radialGradient cx="231.10925" cy="171.60121" r="28.03215" gradientUnits="userSpaceOnUse" id="color-2"><stop offset="0" stop-color="#9bffb3"/><stop offset="1" stop-color="#00f038"/></radialGradient></defs><g transform="translate(-217.48419,-157.48419)"><g data-paper-data="{&quot;isPaintingLayer&quot;:true}" fill-rule="nonzero" stroke-miterlimit="10" stroke-dasharray="" stroke-dashoffset="0" style="mix-blend-mode: normal"><g><path d="M261.26391,180c0,11.74373 -9.52017,21.26391 -21.26391,21.26391c-11.74373,0 -21.26392,-9.52018 -21.26392,-21.26391c0,-11.74373 9.52018,-21.26391 21.26392,-21.26391c11.74373,0 21.26391,9.52018 21.26391,21.26391z" fill="url(#color-1)" stroke="none" stroke-width="1" stroke-linecap="butt" stroke-linejoin="miter"/><path d="M261.26391,180c0,11.74373 -9.52017,21.26391 -21.26391,21.26391c-11.74373,0 -21.26392,-9.52018 -21.26392,-21.26391c0,-11.74373 9.52018,-21.26391 21.26392,-21.26391c11.74373,0 21.26391,9.52018 21.26391,21.26391z" fill="url(#color-2)" stroke="#00be31" stroke-width="2.5038" stroke-linecap="round" stroke-linejoin="round"/><path d="M252.17592,167.01862c1.0741,-0.29781 2.12343,0.49626 2.12609,1.64288c-2.67547,3.15852 -7.37745,4.92171 -8.7216,9.27748c-2.60232,4.61864 0.41486,10.60772 -2.27105,14.9553c-2.16621,0.72751 -4.85506,3.48887 -6.93399,1.54624c-1.01279,-5.74516 -7.38913,-8.72408 -11.64479,-12.03135c-4.75688,-1.91549 0.88469,-5.18796 3.3099,-6.45078c3.67373,0.20333 6.21931,4.33939 9.25351,6.35415c1.25478,-7.5511 7.67325,-13.35393 14.88262,-15.29316z" fill="#ffffff" stroke="none" stroke-width="1" stroke-linecap="butt" stroke-linejoin="miter"/></g></g></g></svg>