<svg version="1.1" xmlns="http://www.w3.org/2000/svg" xmlns:xlink="http://www.w3.org/1999/xlink" width="42.78557" height="46.9382" viewBox="0,0,42.78557,46.9382"><g transform="translate(-218.94241,-156.53091)"><g data-paper-data="{&quot;isPaintingLayer&quot;:true}" fill-rule="nonzero" stroke-linecap="butt" stroke-linejoin="miter" stroke-miterlimit="10" stroke-dasharray="" stroke-dashoffset="0" style="mix-blend-mode: normal"><path d="M221.49604,198.61211c0,-9.27601 0,-32.436 0,-37.4458c0,-1.86908 2.0167,-3.6354 3.99094,-3.6354c4.20683,0 20.30158,0 28.36132,0c2.81947,0 4.65566,1.28928 4.65566,3.41383c0,8.73144 0,31.57086 0,37.00266c0,2.25891 -1.83526,4.52171 -4.65566,4.52171c-8.12822,0 -24.43862,0 -28.58289,0c-1.87986,0 -3.76937,-1.46806 -3.76937,-3.85699z" fill="#00a239" stroke="#ffffff" stroke-width="2"/><text transform="translate(224.57561,191.77333) rotate(-21.86377) scale(0.36235,0.36235)" font-size="40" xml:space="preserve" fill="#00fffc" fill-rule="nonzero" stroke="none" stroke-width="1" stroke-linecap="butt" stroke-linejoin="miter" stroke-miterlimit="10" stroke-dasharray="" stroke-dashoffset="0" font-family="Marker" font-weight="normal" text-anchor="start" style="mix-blend-mode: normal"><tspan x="0" dy="0">UNO!</tspan></text></g></g></svg>