<svg version="1.1" xmlns="http://www.w3.org/2000/svg" xmlns:xlink="http://www.w3.org/1999/xlink" width="45.03162" height="45.03162" viewBox="0,0,45.03162,45.03162"><defs><radialGradient cx="234.06961" cy="174.00021" r="21.23142" gradientUnits="userSpaceOnUse" id="color-1"><stop offset="0" stop-color="#ffffff"/><stop offset="1" stop-color="#00f038" stop-opacity="0"/></radialGradient><radialGradient cx="231.10925" cy="171.60121" r="28.03215" gradientUnits="userSpaceOnUse" id="color-2"><stop offset="0" stop-color="#ff9b9b"/><stop offset="1" stop-color="#f00000"/></radialGradient></defs><g transform="translate(-217.48419,-157.48419)"><g data-paper-data="{&quot;isPaintingLayer&quot;:true}" fill-rule="nonzero" stroke-miterlimit="10" stroke-dasharray="" stroke-dashoffset="0" style="mix-blend-mode: normal"><path d="M261.26391,180c0,11.74373 -9.52018,21.26391 -21.26391,21.26391c-11.74373,0 -21.26391,-9.52018 -21.26391,-21.26391c0,-11.74373 9.52018,-21.26391 21.26391,-21.26391c11.74373,0 21.26391,9.52018 21.26391,21.26391z" fill="url(#color-1)" stroke="none" stroke-width="1" stroke-linecap="butt" stroke-linejoin="miter"/><path d="M261.26391,180c0,11.74373 -9.52018,21.26391 -21.26391,21.26391c-11.74373,0 -21.26391,-9.52018 -21.26391,-21.26391c0,-11.74373 9.52018,-21.26391 21.26391,-21.26391c11.74373,0 21.26391,9.52018 21.26391,21.26391z" fill="url(#color-2)" stroke="#be0000" stroke-width="2.5038" stroke-linecap="round" stroke-linejoin="round"/><path d="M243.16578,169.80403c1.78785,-0.42826 4.48759,-3.11457 5.87094,-0.70064c-0.81495,3.48725 -4.33135,5.89646 -5.17026,9.49473c2.11774,3.46174 5.16555,6.84454 7.36091,10.3614c-0.55495,3.97605 -6.94381,5.38259 -8.1348,0.57168c-1.49298,-1.54065 -2.65537,-5.8176 -4.25171,-2.2351c-2.00177,1.75869 -6.96128,4.96763 -7.99719,1.35297c2.11851,-2.13382 4.30158,-4.31836 5.43599,-7.24803c-0.74351,-2.44292 -3.94185,-4.53352 -5.53263,-6.88559c-3.11507,-2.69789 1.10897,-5.18512 3.76898,-5.89507c2.19366,0.88074 3.11159,4.0187 5.14606,5.70178c1.07201,-1.14005 2.1131,-3.31894 3.50318,-4.51798z" fill="#ffffff" stroke="none" stroke-width="1" stroke-linecap="butt" stroke-linejoin="miter"/></g></g></svg>